<svg xmlns="http://www.w3.org/2000/svg" viewBox="0 0 512 512" width="512" height="512" shape-rendering="crispEdges">
  <title>Throngterm Thronglet - Active</title>
    <style>
    .b { fill: var(--thr-body, #E07B39); }
    .o { fill: var(--thr-outline, #8B3D1F); }
    .a { fill: var(--thr-accent, #6B2A12); }
    .s { fill: #F5C4A1; }
    .w { fill: #FFFFFF; }
    .t { fill: #D9C8B8; }
    .k { fill: #1A1A1A; }
    .c { fill: var(--thr-shirt, #7AAFC8); }
    .m { fill: #F4C542; }
  </style>
  <rect x="224" y="64" width="16" height="16" class="o"/>
  <rect x="240" y="80" width="16" height="16" class="o"/>
  <rect x="240" y="96" width="16" height="16" class="b"/>
  <rect x="256" y="96" width="16" height="16" class="o"/>
  <rect x="128" y="112" width="16" height="16" class="o"/>
  <rect x="144" y="112" width="16" height="16" class="o"/>
  <rect x="160" y="112" width="16" height="16" class="o"/>
  <rect x="176" y="112" width="16" height="16" class="o"/>
  <rect x="192" y="112" width="16" height="16" class="o"/>
  <rect x="208" y="112" width="16" height="16" class="o"/>
  <rect x="240" y="112" width="16" height="16" class="b"/>
  <rect x="256" y="112" width="16" height="16" class="o"/>
  <rect x="304" y="112" width="16" height="16" class="o"/>
  <rect x="320" y="112" width="16" height="16" class="o"/>
  <rect x="336" y="112" width="16" height="16" class="o"/>
  <rect x="352" y="112" width="16" height="16" class="o"/>
  <rect x="368" y="112" width="16" height="16" class="o"/>
  <rect x="384" y="112" width="16" height="16" class="o"/>
  <rect x="112" y="128" width="16" height="16" class="o"/>
  <rect x="128" y="128" width="16" height="16" class="b"/>
  <rect x="144" y="128" width="16" height="16" class="b"/>
  <rect x="160" y="128" width="16" height="16" class="b"/>
  <rect x="176" y="128" width="16" height="16" class="b"/>
  <rect x="192" y="128" width="16" height="16" class="b"/>
  <rect x="208" y="128" width="16" height="16" class="b"/>
  <rect x="224" y="128" width="16" height="16" class="o"/>
  <rect x="240" y="128" width="16" height="16" class="b"/>
  <rect x="256" y="128" width="16" height="16" class="o"/>
  <rect x="272" y="128" width="16" height="16" class="b"/>
  <rect x="288" y="128" width="16" height="16" class="o"/>
  <rect x="304" y="128" width="16" height="16" class="b"/>
  <rect x="320" y="128" width="16" height="16" class="b"/>
  <rect x="336" y="128" width="16" height="16" class="b"/>
  <rect x="352" y="128" width="16" height="16" class="b"/>
  <rect x="368" y="128" width="16" height="16" class="b"/>
  <rect x="384" y="128" width="16" height="16" class="b"/>
  <rect x="400" y="128" width="16" height="16" class="o"/>
  <rect x="96" y="144" width="16" height="16" class="o"/>
  <rect x="112" y="144" width="16" height="16" class="b"/>
  <rect x="128" y="144" width="16" height="16" class="b"/>
  <rect x="144" y="144" width="16" height="16" class="b"/>
  <rect x="160" y="144" width="16" height="16" class="o"/>
  <rect x="176" y="144" width="16" height="16" class="o"/>
  <rect x="192" y="144" width="16" height="16" class="o"/>
  <rect x="208" y="144" width="16" height="16" class="b"/>
  <rect x="224" y="144" width="16" height="16" class="b"/>
  <rect x="240" y="144" width="16" height="16" class="b"/>
  <rect x="256" y="144" width="16" height="16" class="b"/>
  <rect x="272" y="144" width="16" height="16" class="b"/>
  <rect x="288" y="144" width="16" height="16" class="b"/>
  <rect x="304" y="144" width="16" height="16" class="b"/>
  <rect x="320" y="144" width="16" height="16" class="b"/>
  <rect x="336" y="144" width="16" height="16" class="o"/>
  <rect x="352" y="144" width="16" height="16" class="o"/>
  <rect x="368" y="144" width="16" height="16" class="b"/>
  <rect x="384" y="144" width="16" height="16" class="b"/>
  <rect x="400" y="144" width="16" height="16" class="o"/>
  <rect x="96" y="160" width="16" height="16" class="o"/>
  <rect x="112" y="160" width="16" height="16" class="b"/>
  <rect x="128" y="160" width="16" height="16" class="b"/>
  <rect x="144" y="160" width="16" height="16" class="o"/>
  <rect x="160" y="160" width="16" height="16" class="o"/>
  <rect x="176" y="160" width="16" height="16" class="b"/>
  <rect x="192" y="160" width="16" height="16" class="b"/>
  <rect x="208" y="160" width="16" height="16" class="b"/>
  <rect x="224" y="160" width="16" height="16" class="b"/>
  <rect x="240" y="160" width="16" height="16" class="b"/>
  <rect x="256" y="160" width="16" height="16" class="b"/>
  <rect x="272" y="160" width="16" height="16" class="b"/>
  <rect x="288" y="160" width="16" height="16" class="b"/>
  <rect x="304" y="160" width="16" height="16" class="b"/>
  <rect x="320" y="160" width="16" height="16" class="b"/>
  <rect x="336" y="160" width="16" height="16" class="b"/>
  <rect x="352" y="160" width="16" height="16" class="o"/>
  <rect x="368" y="160" width="16" height="16" class="o"/>
  <rect x="384" y="160" width="16" height="16" class="b"/>
  <rect x="400" y="160" width="16" height="16" class="b"/>
  <rect x="96" y="176" width="16" height="16" class="o"/>
  <rect x="112" y="176" width="16" height="16" class="b"/>
  <rect x="128" y="176" width="16" height="16" class="b"/>
  <rect x="144" y="176" width="16" height="16" class="o"/>
  <rect x="160" y="176" width="16" height="16" class="b"/>
  <rect x="176" y="176" width="16" height="16" class="b"/>
  <rect x="192" y="176" width="16" height="16" class="b"/>
  <rect x="208" y="176" width="16" height="16" class="b"/>
  <rect x="224" y="176" width="16" height="16" class="b"/>
  <rect x="240" y="176" width="16" height="16" class="b"/>
  <rect x="256" y="176" width="16" height="16" class="b"/>
  <rect x="272" y="176" width="16" height="16" class="b"/>
  <rect x="288" y="176" width="16" height="16" class="b"/>
  <rect x="304" y="176" width="16" height="16" class="b"/>
  <rect x="320" y="176" width="16" height="16" class="b"/>
  <rect x="336" y="176" width="16" height="16" class="b"/>
  <rect x="352" y="176" width="16" height="16" class="b"/>
  <rect x="368" y="176" width="16" height="16" class="o"/>
  <rect x="384" y="176" width="16" height="16" class="b"/>
  <rect x="400" y="176" width="16" height="16" class="b"/>
  <rect x="96" y="192" width="16" height="16" class="o"/>
  <rect x="112" y="192" width="16" height="16" class="b"/>
  <rect x="128" y="192" width="16" height="16" class="b"/>
  <rect x="144" y="192" width="16" height="16" class="b"/>
  <rect x="160" y="192" width="16" height="16" class="b"/>
  <rect x="176" y="192" width="16" height="16" class="s"/>
  <rect x="192" y="192" width="16" height="16" class="s"/>
  <rect x="208" y="192" width="16" height="16" class="s"/>
  <rect x="224" y="192" width="16" height="16" class="s"/>
  <rect x="240" y="192" width="16" height="16" class="b"/>
  <rect x="256" y="192" width="16" height="16" class="b"/>
  <rect x="272" y="192" width="16" height="16" class="b"/>
  <rect x="288" y="192" width="16" height="16" class="s"/>
  <rect x="304" y="192" width="16" height="16" class="s"/>
  <rect x="320" y="192" width="16" height="16" class="s"/>
  <rect x="336" y="192" width="16" height="16" class="s"/>
  <rect x="352" y="192" width="16" height="16" class="b"/>
  <rect x="368" y="192" width="16" height="16" class="b"/>
  <rect x="384" y="192" width="16" height="16" class="b"/>
  <rect x="400" y="192" width="16" height="16" class="b"/>
  <rect x="80" y="208" width="16" height="16" class="o"/>
  <rect x="96" y="208" width="16" height="16" class="b"/>
  <rect x="112" y="208" width="16" height="16" class="b"/>
  <rect x="128" y="208" width="16" height="16" class="o"/>
  <rect x="144" y="208" width="16" height="16" class="b"/>
  <rect x="160" y="208" width="16" height="16" class="b"/>
  <rect x="176" y="208" width="16" height="16" class="s"/>
  <rect x="192" y="208" width="16" height="16" class="w"/>
  <rect x="208" y="208" width="16" height="16" class="w"/>
  <rect x="224" y="208" width="16" height="16" class="w"/>
  <rect x="240" y="208" width="16" height="16" class="b"/>
  <rect x="256" y="208" width="16" height="16" class="b"/>
  <rect x="272" y="208" width="16" height="16" class="b"/>
  <rect x="288" y="208" width="16" height="16" class="w"/>
  <rect x="304" y="208" width="16" height="16" class="w"/>
  <rect x="320" y="208" width="16" height="16" class="w"/>
  <rect x="336" y="208" width="16" height="16" class="s"/>
  <rect x="352" y="208" width="16" height="16" class="b"/>
  <rect x="368" y="208" width="16" height="16" class="b"/>
  <rect x="384" y="208" width="16" height="16" class="b"/>
  <rect x="400" y="208" width="16" height="16" class="b"/>
  <rect x="416" y="208" width="16" height="16" class="o"/>
  <rect x="96" y="224" width="16" height="16" class="b"/>
  <rect x="112" y="224" width="16" height="16" class="b"/>
  <rect x="128" y="224" width="16" height="16" class="o"/>
  <rect x="144" y="224" width="16" height="16" class="b"/>
  <rect x="160" y="224" width="16" height="16" class="b"/>
  <rect x="176" y="224" width="16" height="16" class="s"/>
  <rect x="192" y="224" width="16" height="16" class="w"/>
  <rect x="208" y="224" width="16" height="16" class="w"/>
  <rect x="224" y="224" width="16" height="16" class="t"/>
  <rect x="240" y="224" width="16" height="16" class="b"/>
  <rect x="256" y="224" width="16" height="16" class="b"/>
  <rect x="272" y="224" width="16" height="16" class="b"/>
  <rect x="288" y="224" width="16" height="16" class="t"/>
  <rect x="304" y="224" width="16" height="16" class="w"/>
  <rect x="320" y="224" width="16" height="16" class="w"/>
  <rect x="336" y="224" width="16" height="16" class="s"/>
  <rect x="352" y="224" width="16" height="16" class="b"/>
  <rect x="368" y="224" width="16" height="16" class="b"/>
  <rect x="384" y="224" width="16" height="16" class="o"/>
  <rect x="400" y="224" width="16" height="16" class="b"/>
  <rect x="128" y="240" width="16" height="16" class="o"/>
  <rect x="144" y="240" width="16" height="16" class="b"/>
  <rect x="160" y="240" width="16" height="16" class="b"/>
  <rect x="176" y="240" width="16" height="16" class="s"/>
  <rect x="192" y="240" width="16" height="16" class="w"/>
  <rect x="208" y="240" width="16" height="16" class="w"/>
  <rect x="224" y="240" width="16" height="16" class="k"/>
  <rect x="240" y="240" width="16" height="16" class="b"/>
  <rect x="256" y="240" width="16" height="16" class="b"/>
  <rect x="272" y="240" width="16" height="16" class="b"/>
  <rect x="288" y="240" width="16" height="16" class="k"/>
  <rect x="304" y="240" width="16" height="16" class="w"/>
  <rect x="320" y="240" width="16" height="16" class="w"/>
  <rect x="336" y="240" width="16" height="16" class="s"/>
  <rect x="352" y="240" width="16" height="16" class="b"/>
  <rect x="368" y="240" width="16" height="16" class="b"/>
  <rect x="384" y="240" width="16" height="16" class="o"/>
  <rect x="128" y="256" width="16" height="16" class="o"/>
  <rect x="144" y="256" width="16" height="16" class="b"/>
  <rect x="160" y="256" width="16" height="16" class="b"/>
  <rect x="176" y="256" width="16" height="16" class="s"/>
  <rect x="192" y="256" width="16" height="16" class="w"/>
  <rect x="208" y="256" width="16" height="16" class="w"/>
  <rect x="224" y="256" width="16" height="16" class="k"/>
  <rect x="240" y="256" width="16" height="16" class="b"/>
  <rect x="256" y="256" width="16" height="16" class="b"/>
  <rect x="272" y="256" width="16" height="16" class="b"/>
  <rect x="288" y="256" width="16" height="16" class="k"/>
  <rect x="304" y="256" width="16" height="16" class="w"/>
  <rect x="320" y="256" width="16" height="16" class="w"/>
  <rect x="336" y="256" width="16" height="16" class="s"/>
  <rect x="352" y="256" width="16" height="16" class="b"/>
  <rect x="368" y="256" width="16" height="16" class="b"/>
  <rect x="384" y="256" width="16" height="16" class="o"/>
  <rect x="128" y="272" width="16" height="16" class="o"/>
  <rect x="144" y="272" width="16" height="16" class="b"/>
  <rect x="160" y="272" width="16" height="16" class="b"/>
  <rect x="176" y="272" width="16" height="16" class="s"/>
  <rect x="192" y="272" width="16" height="16" class="s"/>
  <rect x="208" y="272" width="16" height="16" class="s"/>
  <rect x="224" y="272" width="16" height="16" class="a"/>
  <rect x="240" y="272" width="16" height="16" class="b"/>
  <rect x="256" y="272" width="16" height="16" class="o"/>
  <rect x="272" y="272" width="16" height="16" class="b"/>
  <rect x="288" y="272" width="16" height="16" class="a"/>
  <rect x="304" y="272" width="16" height="16" class="s"/>
  <rect x="320" y="272" width="16" height="16" class="s"/>
  <rect x="336" y="272" width="16" height="16" class="s"/>
  <rect x="352" y="272" width="16" height="16" class="b"/>
  <rect x="368" y="272" width="16" height="16" class="b"/>
  <rect x="384" y="272" width="16" height="16" class="o"/>
  <rect x="128" y="288" width="16" height="16" class="o"/>
  <rect x="144" y="288" width="16" height="16" class="b"/>
  <rect x="160" y="288" width="16" height="16" class="b"/>
  <rect x="176" y="288" width="16" height="16" class="b"/>
  <rect x="192" y="288" width="16" height="16" class="b"/>
  <rect x="208" y="288" width="16" height="16" class="b"/>
  <rect x="224" y="288" width="16" height="16" class="b"/>
  <rect x="240" y="288" width="16" height="16" class="b"/>
  <rect x="256" y="288" width="16" height="16" class="k"/>
  <rect x="272" y="288" width="16" height="16" class="b"/>
  <rect x="288" y="288" width="16" height="16" class="b"/>
  <rect x="304" y="288" width="16" height="16" class="b"/>
  <rect x="320" y="288" width="16" height="16" class="b"/>
  <rect x="336" y="288" width="16" height="16" class="b"/>
  <rect x="352" y="288" width="16" height="16" class="b"/>
  <rect x="368" y="288" width="16" height="16" class="b"/>
  <rect x="384" y="288" width="16" height="16" class="o"/>
  <rect x="128" y="304" width="16" height="16" class="o"/>
  <rect x="144" y="304" width="16" height="16" class="o"/>
  <rect x="160" y="304" width="16" height="16" class="b"/>
  <rect x="176" y="304" width="16" height="16" class="s"/>
  <rect x="192" y="304" width="16" height="16" class="s"/>
  <rect x="208" y="304" width="16" height="16" class="s"/>
  <rect x="224" y="304" width="16" height="16" class="s"/>
  <rect x="240" y="304" width="16" height="16" class="s"/>
  <rect x="256" y="304" width="16" height="16" class="s"/>
  <rect x="272" y="304" width="16" height="16" class="s"/>
  <rect x="288" y="304" width="16" height="16" class="s"/>
  <rect x="304" y="304" width="16" height="16" class="s"/>
  <rect x="320" y="304" width="16" height="16" class="s"/>
  <rect x="336" y="304" width="16" height="16" class="s"/>
  <rect x="352" y="304" width="16" height="16" class="b"/>
  <rect x="368" y="304" width="16" height="16" class="o"/>
  <rect x="384" y="304" width="16" height="16" class="o"/>
  <rect x="112" y="320" width="16" height="16" class="o"/>
  <rect x="128" y="320" width="16" height="16" class="b"/>
  <rect x="144" y="320" width="16" height="16" class="b"/>
  <rect x="160" y="320" width="16" height="16" class="o"/>
  <rect x="176" y="320" width="16" height="16" class="c"/>
  <rect x="192" y="320" width="16" height="16" class="c"/>
  <rect x="208" y="320" width="16" height="16" class="c"/>
  <rect x="224" y="320" width="16" height="16" class="c"/>
  <rect x="240" y="320" width="16" height="16" class="c"/>
  <rect x="256" y="320" width="16" height="16" class="c"/>
  <rect x="272" y="320" width="16" height="16" class="c"/>
  <rect x="288" y="320" width="16" height="16" class="c"/>
  <rect x="304" y="320" width="16" height="16" class="c"/>
  <rect x="320" y="320" width="16" height="16" class="c"/>
  <rect x="336" y="320" width="16" height="16" class="c"/>
  <rect x="352" y="320" width="16" height="16" class="c"/>
  <rect x="368" y="320" width="16" height="16" class="b"/>
  <rect x="384" y="320" width="16" height="16" class="b"/>
  <rect x="400" y="320" width="16" height="16" class="o"/>
  <rect x="112" y="336" width="16" height="16" class="o"/>
  <rect x="128" y="336" width="16" height="16" class="b"/>
  <rect x="144" y="336" width="16" height="16" class="b"/>
  <rect x="160" y="336" width="16" height="16" class="o"/>
  <rect x="176" y="336" width="16" height="16" class="c"/>
  <rect x="192" y="336" width="16" height="16" class="c"/>
  <rect x="208" y="336" width="16" height="16" class="c"/>
  <rect x="224" y="336" width="16" height="16" class="c"/>
  <rect x="240" y="336" width="16" height="16" class="c"/>
  <rect x="256" y="336" width="16" height="16" class="c"/>
  <rect x="272" y="336" width="16" height="16" class="c"/>
  <rect x="288" y="336" width="16" height="16" class="c"/>
  <rect x="304" y="336" width="16" height="16" class="c"/>
  <rect x="320" y="336" width="16" height="16" class="c"/>
  <rect x="336" y="336" width="16" height="16" class="c"/>
  <rect x="352" y="336" width="16" height="16" class="c"/>
  <rect x="368" y="336" width="16" height="16" class="b"/>
  <rect x="384" y="336" width="16" height="16" class="b"/>
  <rect x="400" y="336" width="16" height="16" class="o"/>
  <rect x="112" y="352" width="16" height="16" class="o"/>
  <rect x="128" y="352" width="16" height="16" class="b"/>
  <rect x="144" y="352" width="16" height="16" class="b"/>
  <rect x="160" y="352" width="16" height="16" class="o"/>
  <rect x="176" y="352" width="16" height="16" class="c"/>
  <rect x="192" y="352" width="16" height="16" class="c"/>
  <rect x="208" y="352" width="16" height="16" class="c"/>
  <rect x="224" y="352" width="16" height="16" class="c"/>
  <rect x="240" y="352" width="16" height="16" class="c"/>
  <rect x="256" y="352" width="16" height="16" class="c"/>
  <rect x="272" y="352" width="16" height="16" class="c"/>
  <rect x="288" y="352" width="16" height="16" class="c"/>
  <rect x="304" y="352" width="16" height="16" class="c"/>
  <rect x="320" y="352" width="16" height="16" class="c"/>
  <rect x="336" y="352" width="16" height="16" class="c"/>
  <rect x="352" y="352" width="16" height="16" class="c"/>
  <rect x="368" y="352" width="16" height="16" class="b"/>
  <rect x="384" y="352" width="16" height="16" class="b"/>
  <rect x="400" y="352" width="16" height="16" class="o"/>
  <rect x="128" y="368" width="16" height="16" class="o"/>
  <rect x="144" y="368" width="16" height="16" class="o"/>
  <rect x="160" y="368" width="16" height="16" class="o"/>
  <rect x="176" y="368" width="16" height="16" class="c"/>
  <rect x="192" y="368" width="16" height="16" class="c"/>
  <rect x="208" y="368" width="16" height="16" class="c"/>
  <rect x="224" y="368" width="16" height="16" class="c"/>
  <rect x="240" y="368" width="16" height="16" class="c"/>
  <rect x="256" y="368" width="16" height="16" class="c"/>
  <rect x="272" y="368" width="16" height="16" class="c"/>
  <rect x="288" y="368" width="16" height="16" class="c"/>
  <rect x="304" y="368" width="16" height="16" class="c"/>
  <rect x="320" y="368" width="16" height="16" class="c"/>
  <rect x="336" y="368" width="16" height="16" class="c"/>
  <rect x="352" y="368" width="16" height="16" class="o"/>
  <rect x="368" y="368" width="16" height="16" class="o"/>
  <rect x="384" y="368" width="16" height="16" class="o"/>
  <rect x="160" y="384" width="16" height="16" class="o"/>
  <rect x="176" y="384" width="16" height="16" class="o"/>
  <rect x="192" y="384" width="16" height="16" class="b"/>
  <rect x="208" y="384" width="16" height="16" class="b"/>
  <rect x="224" y="384" width="16" height="16" class="b"/>
  <rect x="240" y="384" width="16" height="16" class="b"/>
  <rect x="256" y="384" width="16" height="16" class="k"/>
  <rect x="272" y="384" width="16" height="16" class="b"/>
  <rect x="288" y="384" width="16" height="16" class="b"/>
  <rect x="304" y="384" width="16" height="16" class="b"/>
  <rect x="320" y="384" width="16" height="16" class="b"/>
  <rect x="336" y="384" width="16" height="16" class="o"/>
  <rect x="352" y="384" width="16" height="16" class="o"/>
  <rect x="176" y="400" width="16" height="16" class="o"/>
  <rect x="192" y="400" width="16" height="16" class="b"/>
  <rect x="208" y="400" width="16" height="16" class="b"/>
  <rect x="224" y="400" width="16" height="16" class="b"/>
  <rect x="240" y="400" width="16" height="16" class="b"/>
  <rect x="256" y="400" width="16" height="16" class="k"/>
  <rect x="272" y="400" width="16" height="16" class="b"/>
  <rect x="288" y="400" width="16" height="16" class="b"/>
  <rect x="304" y="400" width="16" height="16" class="b"/>
  <rect x="320" y="400" width="16" height="16" class="b"/>
  <rect x="336" y="400" width="16" height="16" class="o"/>
  <rect x="352" y="400" width="16" height="16" class="o"/>
  <rect x="144" y="416" width="16" height="16" class="k"/>
  <rect x="160" y="416" width="16" height="16" class="k"/>
  <rect x="176" y="416" width="16" height="16" class="k"/>
  <rect x="192" y="416" width="16" height="16" class="k"/>
  <rect x="208" y="416" width="16" height="16" class="k"/>
  <rect x="224" y="416" width="16" height="16" class="k"/>
  <rect x="240" y="416" width="16" height="16" class="k"/>
  <rect x="256" y="416" width="16" height="16" class="k"/>
  <rect x="272" y="416" width="16" height="16" class="k"/>
  <rect x="288" y="416" width="16" height="16" class="k"/>
  <rect x="304" y="416" width="16" height="16" class="k"/>
  <rect x="320" y="416" width="16" height="16" class="k"/>
  <rect x="336" y="416" width="16" height="16" class="k"/>
  <rect x="352" y="416" width="16" height="16" class="k"/>
  <rect x="368" y="416" width="16" height="16" class="k"/>
  <rect x="224" y="16" width="16" height="16" class="m"/>
  <rect x="240" y="16" width="16" height="16" class="m"/>
  <rect x="256" y="16" width="16" height="16" class="m"/>
  <rect x="272" y="16" width="16" height="16" class="m"/>
  <rect x="288" y="16" width="16" height="16" class="m"/>
  <rect x="224" y="32" width="16" height="16" class="m"/>
  <rect x="288" y="32" width="16" height="16" class="m"/>
  <rect x="224" y="48" width="16" height="16" class="m"/>
  <rect x="256" y="48" width="16" height="16" class="m"/>
  <rect x="272" y="48" width="16" height="16" class="m"/>
  <rect x="288" y="48" width="16" height="16" class="m"/>
  <rect x="224" y="64" width="16" height="16" class="m"/>
  <rect x="288" y="64" width="16" height="16" class="m"/>
  <rect x="224" y="80" width="16" height="16" class="m"/>
  <rect x="240" y="80" width="16" height="16" class="m"/>
  <rect x="256" y="80" width="16" height="16" class="m"/>
  <rect x="272" y="80" width="16" height="16" class="m"/>
  <rect x="288" y="80" width="16" height="16" class="m"/>
</svg>
